<svg xmlns="http://www.w3.org/2000/svg" xmlns:xlink="http://www.w3.org/1999/xlink" version="1.1" x="0px" y="0px" viewBox="0 0 100 100" enable-background="new 0 0 100 100" xml:space="preserve"><g><path d="M81.305,124.206c1.32,0,2.336,0.336,3.048,1.008s1.068,1.696,1.068,3.072c0,0.72-0.08,1.358-0.24,1.913   c-0.16,0.557-0.408,1.025-0.744,1.404c-0.336,0.381-0.764,0.67-1.284,0.871c-0.52,0.199-1.136,0.299-1.848,0.299h-2.94v-8.567   H81.305z M81.4,131.814c0.128,0,0.288-0.01,0.48-0.031c0.191-0.02,0.396-0.067,0.612-0.143c0.216-0.076,0.43-0.187,0.642-0.33   c0.212-0.145,0.402-0.34,0.57-0.588s0.306-0.559,0.414-0.931c0.107-0.372,0.161-0.822,0.161-1.351c0-0.512-0.05-0.969-0.149-1.373   c-0.101-0.404-0.264-0.748-0.492-1.032c-0.228-0.284-0.521-0.5-0.882-0.648c-0.36-0.147-0.804-0.222-1.332-0.222h-1.92v6.648H81.4z   "/><path d="M91.037,132.378c-0.464,0.353-1.048,0.528-1.752,0.528c-0.496,0-0.926-0.08-1.29-0.24s-0.67-0.385-0.918-0.672   c-0.248-0.288-0.435-0.633-0.559-1.032s-0.193-0.836-0.21-1.308c0-0.473,0.072-0.904,0.217-1.297   c0.144-0.392,0.346-0.731,0.605-1.02s0.568-0.512,0.924-0.672c0.356-0.16,0.746-0.24,1.17-0.24c0.553,0,1.01,0.114,1.374,0.342   c0.364,0.229,0.656,0.519,0.876,0.87c0.221,0.353,0.372,0.736,0.456,1.152s0.118,0.812,0.103,1.188h-4.645   c-0.008,0.271,0.024,0.529,0.097,0.773c0.071,0.244,0.188,0.46,0.348,0.648c0.16,0.188,0.364,0.338,0.612,0.449   c0.247,0.112,0.54,0.168,0.876,0.168c0.432,0,0.786-0.1,1.062-0.3c0.276-0.2,0.458-0.504,0.546-0.911h1.008   C91.801,131.502,91.501,132.025,91.037,132.378z M90.791,128.395c-0.092-0.217-0.216-0.402-0.372-0.559s-0.34-0.279-0.552-0.372   c-0.212-0.092-0.446-0.138-0.702-0.138c-0.264,0-0.502,0.046-0.714,0.138c-0.212,0.093-0.395,0.218-0.546,0.378   c-0.152,0.16-0.272,0.346-0.36,0.559c-0.088,0.211-0.14,0.438-0.156,0.678h3.564C90.937,128.838,90.883,128.609,90.791,128.395z"/><path d="M93.868,131.388c0.096,0.156,0.222,0.28,0.378,0.372s0.332,0.158,0.528,0.198s0.397,0.06,0.605,0.06   c0.16,0,0.328-0.012,0.505-0.035c0.176-0.024,0.338-0.068,0.485-0.133c0.148-0.063,0.271-0.158,0.366-0.281   c0.096-0.125,0.144-0.282,0.144-0.475c0-0.264-0.1-0.464-0.3-0.6c-0.2-0.137-0.45-0.246-0.75-0.33s-0.626-0.16-0.978-0.229   c-0.353-0.067-0.679-0.164-0.979-0.287c-0.3-0.125-0.55-0.299-0.75-0.522s-0.3-0.536-0.3-0.937c0-0.312,0.07-0.58,0.21-0.804   s0.32-0.405,0.54-0.546c0.22-0.14,0.468-0.244,0.744-0.312c0.276-0.067,0.55-0.102,0.822-0.102c0.352,0,0.676,0.03,0.972,0.09   c0.296,0.061,0.558,0.164,0.786,0.312c0.228,0.148,0.41,0.348,0.546,0.6s0.216,0.566,0.24,0.942h-1.021   c-0.016-0.2-0.067-0.366-0.155-0.498c-0.089-0.132-0.2-0.238-0.337-0.318c-0.136-0.079-0.286-0.138-0.449-0.174   c-0.164-0.036-0.33-0.054-0.498-0.054c-0.152,0-0.307,0.012-0.462,0.035c-0.156,0.024-0.299,0.066-0.427,0.127   c-0.128,0.06-0.231,0.14-0.312,0.24c-0.08,0.1-0.12,0.229-0.12,0.39c0,0.176,0.062,0.321,0.186,0.438   c0.124,0.115,0.282,0.211,0.475,0.287c0.191,0.076,0.408,0.141,0.647,0.192c0.24,0.052,0.48,0.106,0.721,0.161   c0.256,0.057,0.506,0.125,0.75,0.205c0.243,0.08,0.46,0.186,0.647,0.317c0.188,0.132,0.34,0.298,0.456,0.498   s0.174,0.448,0.174,0.744c0,0.376-0.078,0.688-0.233,0.937c-0.156,0.248-0.36,0.447-0.612,0.6s-0.536,0.258-0.852,0.318   c-0.316,0.06-0.631,0.09-0.942,0.09c-0.344,0-0.672-0.036-0.984-0.108c-0.312-0.071-0.588-0.19-0.827-0.354   c-0.24-0.163-0.433-0.379-0.576-0.647c-0.145-0.269-0.225-0.594-0.24-0.978h1.02C93.72,131.042,93.772,131.232,93.868,131.388z"/><path d="M99.148,125.454v-1.248h1.02v1.248H99.148z M100.168,126.57v6.203h-1.02v-6.203H100.168z"/><path d="M106.408,134.525c-0.464,0.504-1.192,0.756-2.184,0.756c-0.288,0-0.582-0.031-0.882-0.096   c-0.301-0.064-0.572-0.168-0.816-0.312s-0.446-0.332-0.606-0.563c-0.16-0.232-0.248-0.517-0.264-0.853h1.021   c0.008,0.185,0.065,0.34,0.174,0.468c0.107,0.128,0.24,0.232,0.396,0.312c0.156,0.08,0.326,0.138,0.511,0.174   c0.184,0.035,0.359,0.054,0.527,0.054c0.336,0,0.62-0.058,0.853-0.174c0.231-0.116,0.424-0.276,0.575-0.479   c0.152-0.205,0.263-0.451,0.33-0.738c0.068-0.288,0.103-0.604,0.103-0.948v-0.408h-0.024c-0.176,0.384-0.441,0.666-0.798,0.847   c-0.355,0.18-0.734,0.27-1.134,0.27c-0.464,0-0.868-0.084-1.212-0.252c-0.345-0.168-0.632-0.395-0.864-0.678   c-0.232-0.284-0.406-0.616-0.521-0.996c-0.116-0.381-0.175-0.782-0.175-1.206c0-0.368,0.049-0.746,0.145-1.134   c0.096-0.389,0.256-0.74,0.479-1.057c0.225-0.316,0.521-0.576,0.889-0.779c0.367-0.205,0.819-0.307,1.355-0.307   c0.392,0,0.752,0.086,1.08,0.258s0.584,0.431,0.769,0.774h0.012v-0.888h0.96v5.676   C107.104,133.262,106.872,134.021,106.408,134.525z M105.106,131.736c0.235-0.141,0.426-0.324,0.57-0.553   c0.144-0.228,0.25-0.486,0.317-0.773c0.068-0.288,0.103-0.576,0.103-0.864c0-0.272-0.032-0.54-0.097-0.804   c-0.063-0.264-0.166-0.502-0.306-0.715c-0.14-0.211-0.322-0.381-0.546-0.51c-0.225-0.127-0.496-0.191-0.816-0.191   c-0.328,0-0.607,0.062-0.84,0.186c-0.232,0.125-0.422,0.29-0.569,0.498c-0.148,0.209-0.257,0.448-0.324,0.721   c-0.068,0.271-0.103,0.556-0.103,0.852c0,0.279,0.028,0.561,0.084,0.84c0.057,0.28,0.152,0.534,0.288,0.762   c0.136,0.229,0.316,0.412,0.54,0.553c0.224,0.14,0.504,0.209,0.84,0.209S104.87,131.876,105.106,131.736z"/><path d="M109.6,126.57v0.983h0.024c0.424-0.751,1.096-1.128,2.016-1.128c0.408,0,0.748,0.057,1.021,0.168   c0.271,0.112,0.492,0.268,0.66,0.469c0.168,0.199,0.286,0.438,0.354,0.713c0.068,0.276,0.103,0.582,0.103,0.918v4.08h-1.021v-4.199   c0-0.385-0.112-0.688-0.336-0.912s-0.532-0.336-0.924-0.336c-0.312,0-0.582,0.048-0.81,0.144c-0.229,0.097-0.419,0.232-0.57,0.408   c-0.152,0.177-0.267,0.382-0.342,0.618c-0.076,0.236-0.114,0.494-0.114,0.773v3.504h-1.021v-6.203H109.6z"/><path d="M119.704,132.378c-0.464,0.353-1.048,0.528-1.752,0.528c-0.496,0-0.926-0.08-1.29-0.24s-0.67-0.385-0.918-0.672   c-0.248-0.288-0.435-0.633-0.559-1.032s-0.193-0.836-0.21-1.308c0-0.473,0.072-0.904,0.217-1.297   c0.144-0.392,0.346-0.731,0.605-1.02s0.568-0.512,0.924-0.672c0.356-0.16,0.746-0.24,1.17-0.24c0.553,0,1.01,0.114,1.374,0.342   c0.364,0.229,0.656,0.519,0.876,0.87c0.221,0.353,0.372,0.736,0.456,1.152s0.118,0.812,0.103,1.188h-4.645   c-0.008,0.271,0.024,0.529,0.097,0.773c0.071,0.244,0.188,0.46,0.348,0.648c0.16,0.188,0.364,0.338,0.612,0.449   c0.247,0.112,0.54,0.168,0.876,0.168c0.432,0,0.786-0.1,1.062-0.3c0.276-0.2,0.458-0.504,0.546-0.911h1.008   C120.468,131.502,120.168,132.025,119.704,132.378z M119.458,128.395c-0.092-0.217-0.216-0.402-0.372-0.559   s-0.34-0.279-0.552-0.372c-0.212-0.092-0.446-0.138-0.702-0.138c-0.264,0-0.502,0.046-0.714,0.138   c-0.212,0.093-0.395,0.218-0.546,0.378c-0.152,0.16-0.272,0.346-0.36,0.559c-0.088,0.211-0.14,0.438-0.156,0.678h3.564   C119.604,128.838,119.55,128.609,119.458,128.395z"/><path d="M126.28,132.773v-0.84h-0.024c-0.168,0.344-0.432,0.592-0.792,0.744c-0.359,0.152-0.756,0.229-1.188,0.229   c-0.48,0-0.898-0.088-1.254-0.264c-0.356-0.177-0.652-0.412-0.888-0.709c-0.236-0.295-0.414-0.64-0.534-1.031   c-0.12-0.393-0.181-0.809-0.181-1.248c0-0.44,0.059-0.856,0.175-1.248c0.115-0.393,0.291-0.734,0.527-1.026   s0.532-0.524,0.889-0.696c0.355-0.172,0.77-0.258,1.241-0.258c0.16,0,0.332,0.016,0.517,0.049c0.184,0.031,0.367,0.086,0.552,0.161   c0.184,0.076,0.357,0.177,0.521,0.3c0.164,0.125,0.303,0.278,0.414,0.463h0.024v-3.192h1.02v8.567H126.28z M122.614,130.572   c0.076,0.275,0.192,0.521,0.348,0.738c0.156,0.215,0.356,0.388,0.601,0.516s0.529,0.191,0.857,0.191   c0.344,0,0.637-0.067,0.876-0.203c0.24-0.137,0.437-0.314,0.589-0.535c0.151-0.219,0.262-0.469,0.329-0.75   c0.068-0.279,0.103-0.563,0.103-0.852c0-0.304-0.036-0.598-0.108-0.882c-0.071-0.284-0.186-0.534-0.342-0.75   s-0.358-0.39-0.605-0.522c-0.248-0.131-0.549-0.197-0.9-0.197c-0.344,0-0.636,0.068-0.876,0.203   c-0.24,0.137-0.432,0.316-0.576,0.541c-0.144,0.224-0.248,0.479-0.312,0.768c-0.064,0.288-0.097,0.584-0.097,0.889   C122.5,130.014,122.538,130.296,122.614,130.572z"/><path d="M133.264,124.206v3.204h0.023c0.168-0.344,0.433-0.594,0.792-0.75c0.36-0.156,0.757-0.234,1.188-0.234   c0.479,0,0.897,0.088,1.254,0.264c0.355,0.177,0.652,0.414,0.888,0.715c0.236,0.3,0.414,0.646,0.534,1.037   c0.12,0.393,0.18,0.809,0.18,1.248c0,0.44-0.058,0.856-0.174,1.248c-0.116,0.393-0.292,0.734-0.527,1.026   c-0.236,0.292-0.532,0.522-0.889,0.69c-0.355,0.168-0.77,0.252-1.242,0.252c-0.151,0-0.321-0.017-0.51-0.049   c-0.188-0.031-0.374-0.084-0.558-0.155c-0.185-0.072-0.358-0.17-0.522-0.294s-0.302-0.278-0.414-0.463h-0.023v0.828h-1.021v-8.567   H133.264z M136.93,128.771c-0.076-0.275-0.192-0.521-0.349-0.738c-0.155-0.215-0.355-0.387-0.6-0.516   c-0.244-0.127-0.53-0.191-0.858-0.191c-0.344,0-0.636,0.068-0.876,0.203c-0.239,0.137-0.436,0.314-0.588,0.535   c-0.151,0.22-0.262,0.47-0.33,0.75c-0.067,0.279-0.102,0.563-0.102,0.852c0,0.305,0.036,0.598,0.108,0.882   c0.071,0.284,0.186,0.534,0.342,0.75c0.155,0.216,0.357,0.39,0.605,0.522c0.248,0.132,0.548,0.197,0.9,0.197   c0.352,0,0.646-0.067,0.882-0.203c0.236-0.137,0.426-0.316,0.57-0.541c0.144-0.223,0.248-0.479,0.312-0.768   c0.064-0.288,0.096-0.584,0.096-0.888C137.043,129.33,137.006,129.048,136.93,128.771z"/><path d="M141.76,133.602c-0.12,0.305-0.238,0.561-0.354,0.769c-0.115,0.208-0.244,0.378-0.384,0.51s-0.296,0.228-0.468,0.288   s-0.37,0.09-0.594,0.09c-0.12,0-0.24-0.008-0.36-0.023c-0.12-0.017-0.236-0.045-0.348-0.084v-0.937   c0.088,0.04,0.189,0.073,0.306,0.103c0.116,0.027,0.214,0.041,0.294,0.041c0.208,0,0.382-0.049,0.522-0.149   c0.14-0.101,0.246-0.242,0.317-0.427l0.42-1.043l-2.46-6.168h1.152l1.812,5.076h0.024l1.74-5.076h1.08L141.76,133.602z"/><path d="M152.416,124.206l3.348,8.567h-1.26l-0.937-2.58h-3.624l-0.96,2.58h-1.164l3.336-8.567H152.416z M153.208,129.234   l-1.429-3.996h-0.023l-1.452,3.996H153.208z"/><path d="M157.396,126.57v0.983h0.024c0.424-0.751,1.096-1.128,2.016-1.128c0.408,0,0.748,0.057,1.021,0.168   c0.271,0.112,0.492,0.268,0.66,0.469c0.168,0.199,0.286,0.438,0.354,0.713c0.068,0.276,0.103,0.582,0.103,0.918v4.08h-1.021v-4.199   c0-0.385-0.112-0.688-0.336-0.912s-0.532-0.336-0.924-0.336c-0.312,0-0.582,0.048-0.81,0.144c-0.229,0.097-0.419,0.232-0.57,0.408   c-0.152,0.177-0.267,0.382-0.342,0.618c-0.076,0.236-0.114,0.494-0.114,0.773v3.504h-1.021v-6.203H157.396z"/><path d="M167.632,132.773v-0.84h-0.024c-0.168,0.344-0.432,0.592-0.792,0.744c-0.359,0.152-0.756,0.229-1.188,0.229   c-0.48,0-0.898-0.088-1.254-0.264c-0.356-0.177-0.652-0.412-0.888-0.709c-0.236-0.295-0.414-0.64-0.534-1.031   c-0.12-0.393-0.181-0.809-0.181-1.248c0-0.44,0.059-0.856,0.175-1.248c0.115-0.393,0.291-0.734,0.527-1.026   s0.532-0.524,0.889-0.696c0.355-0.172,0.77-0.258,1.241-0.258c0.16,0,0.332,0.016,0.517,0.049c0.184,0.031,0.367,0.086,0.552,0.161   c0.184,0.076,0.357,0.177,0.521,0.3c0.164,0.125,0.303,0.278,0.414,0.463h0.024v-3.192h1.02v8.567H167.632z M163.966,130.572   c0.076,0.275,0.192,0.521,0.348,0.738c0.156,0.215,0.356,0.388,0.601,0.516s0.529,0.191,0.857,0.191   c0.344,0,0.637-0.067,0.876-0.203c0.24-0.137,0.437-0.314,0.589-0.535c0.151-0.219,0.262-0.469,0.329-0.75   c0.068-0.279,0.103-0.563,0.103-0.852c0-0.304-0.036-0.598-0.108-0.882c-0.071-0.284-0.186-0.534-0.342-0.75   s-0.358-0.39-0.605-0.522c-0.248-0.131-0.549-0.197-0.9-0.197c-0.344,0-0.636,0.068-0.876,0.203   c-0.24,0.137-0.432,0.316-0.576,0.541c-0.144,0.224-0.248,0.479-0.312,0.768c-0.064,0.288-0.097,0.584-0.097,0.889   C163.852,130.014,163.89,130.296,163.966,130.572z"/><path d="M171.147,126.57v1.308h0.023c0.248-0.504,0.552-0.876,0.912-1.116s0.816-0.352,1.368-0.336v1.08   c-0.408,0-0.756,0.057-1.044,0.168c-0.288,0.112-0.521,0.275-0.696,0.492c-0.176,0.216-0.304,0.479-0.384,0.786   s-0.12,0.661-0.12,1.062v2.76h-1.02v-6.203H171.147z"/><path d="M178.396,132.378c-0.464,0.353-1.048,0.528-1.752,0.528c-0.496,0-0.926-0.08-1.29-0.24s-0.67-0.385-0.918-0.672   c-0.248-0.288-0.435-0.633-0.559-1.032s-0.193-0.836-0.21-1.308c0-0.473,0.072-0.904,0.217-1.297   c0.144-0.392,0.346-0.731,0.605-1.02s0.568-0.512,0.924-0.672c0.356-0.16,0.746-0.24,1.17-0.24c0.553,0,1.01,0.114,1.374,0.342   c0.364,0.229,0.656,0.519,0.876,0.87c0.221,0.353,0.372,0.736,0.456,1.152s0.118,0.812,0.103,1.188h-4.645   c-0.008,0.271,0.024,0.529,0.097,0.773c0.071,0.244,0.188,0.46,0.348,0.648c0.16,0.188,0.364,0.338,0.612,0.449   c0.247,0.112,0.54,0.168,0.876,0.168c0.432,0,0.786-0.1,1.062-0.3c0.276-0.2,0.458-0.504,0.546-0.911h1.008   C179.159,131.502,178.859,132.025,178.396,132.378z M178.149,128.395c-0.092-0.217-0.216-0.402-0.372-0.559   s-0.34-0.279-0.552-0.372c-0.212-0.092-0.446-0.138-0.702-0.138c-0.264,0-0.502,0.046-0.714,0.138   c-0.212,0.093-0.395,0.218-0.546,0.378c-0.152,0.16-0.272,0.346-0.36,0.559c-0.088,0.211-0.14,0.438-0.156,0.678h3.564   C178.295,128.838,178.241,128.609,178.149,128.395z"/><path d="M182.884,133.602c-0.12,0.305-0.238,0.561-0.354,0.769c-0.115,0.208-0.244,0.378-0.384,0.51s-0.296,0.228-0.468,0.288   s-0.37,0.09-0.594,0.09c-0.12,0-0.24-0.008-0.36-0.023c-0.12-0.017-0.236-0.045-0.348-0.084v-0.937   c0.088,0.04,0.189,0.073,0.306,0.103c0.116,0.027,0.214,0.041,0.294,0.041c0.208,0,0.382-0.049,0.522-0.149   c0.14-0.101,0.246-0.242,0.317-0.427l0.42-1.043l-2.46-6.168h1.152l1.812,5.076h0.024l1.74-5.076h1.08L182.884,133.602z"/><path d="M191.092,124.206v4.272l4.344-4.272h1.477l-3.612,3.456l3.756,5.111h-1.44l-3.096-4.332l-1.428,1.332v3h-1.141v-8.567   H191.092z"/><path d="M198.712,126.57v1.308h0.023c0.248-0.504,0.552-0.876,0.912-1.116s0.816-0.352,1.368-0.336v1.08   c-0.408,0-0.756,0.057-1.044,0.168c-0.288,0.112-0.521,0.275-0.696,0.492c-0.176,0.216-0.304,0.479-0.384,0.786   s-0.12,0.661-0.12,1.062v2.76h-1.02v-6.203H198.712z"/><path d="M204.22,133.602c-0.12,0.305-0.238,0.561-0.354,0.769c-0.115,0.208-0.244,0.378-0.384,0.51s-0.296,0.228-0.468,0.288   s-0.37,0.09-0.594,0.09c-0.12,0-0.24-0.008-0.36-0.023c-0.12-0.017-0.236-0.045-0.348-0.084v-0.937   c0.088,0.04,0.189,0.073,0.306,0.103c0.116,0.027,0.214,0.041,0.294,0.041c0.208,0,0.382-0.049,0.522-0.149   c0.14-0.101,0.246-0.242,0.317-0.427l0.42-1.043l-2.46-6.168h1.152l1.812,5.076h0.024l1.74-5.076h1.08L204.22,133.602z"/><path d="M208.863,124.206v8.567h-1.02v-8.567H208.863z"/><path d="M210.303,128.4c0.128-0.396,0.32-0.74,0.576-1.032s0.571-0.522,0.948-0.69c0.376-0.168,0.808-0.252,1.296-0.252   c0.495,0,0.93,0.084,1.302,0.252s0.686,0.398,0.942,0.69c0.256,0.292,0.447,0.636,0.575,1.032c0.128,0.396,0.192,0.822,0.192,1.277   c0,0.456-0.064,0.881-0.192,1.271c-0.128,0.393-0.319,0.734-0.575,1.027c-0.257,0.291-0.57,0.52-0.942,0.684   s-0.807,0.246-1.302,0.246c-0.488,0-0.92-0.082-1.296-0.246c-0.377-0.164-0.692-0.393-0.948-0.684   c-0.256-0.293-0.448-0.635-0.576-1.027c-0.128-0.391-0.192-0.815-0.192-1.271C210.11,129.223,210.175,128.796,210.303,128.4z    M211.341,130.68c0.1,0.293,0.238,0.536,0.414,0.732c0.176,0.195,0.382,0.346,0.618,0.449c0.235,0.104,0.485,0.156,0.75,0.156   c0.264,0,0.514-0.052,0.75-0.156c0.235-0.104,0.441-0.254,0.617-0.449c0.177-0.196,0.314-0.439,0.414-0.732   c0.101-0.291,0.15-0.625,0.15-1.002c0-0.376-0.05-0.709-0.15-1.002c-0.1-0.292-0.237-0.537-0.414-0.738   c-0.176-0.199-0.382-0.352-0.617-0.455c-0.236-0.104-0.486-0.156-0.75-0.156c-0.265,0-0.515,0.052-0.75,0.156   c-0.236,0.104-0.442,0.256-0.618,0.455c-0.176,0.201-0.314,0.446-0.414,0.738c-0.101,0.293-0.15,0.626-0.15,1.002   C211.19,130.055,211.24,130.389,211.341,130.68z"/><path d="M219.038,132.773l-2.304-6.203h1.14l1.74,5.172h0.024l1.691-5.172h1.068l-2.268,6.203H219.038z"/><path d="M82.721,161.574v-0.84h-0.024c-0.168,0.344-0.432,0.592-0.792,0.743c-0.359,0.151-0.756,0.228-1.188,0.228   c-0.48,0-0.898-0.088-1.254-0.264c-0.356-0.176-0.652-0.412-0.888-0.707c-0.236-0.297-0.414-0.641-0.534-1.033   c-0.12-0.391-0.181-0.808-0.181-1.248c0-0.439,0.059-0.855,0.175-1.248c0.115-0.391,0.291-0.733,0.527-1.025   s0.532-0.523,0.889-0.695c0.355-0.172,0.77-0.259,1.241-0.259c0.16,0,0.332,0.017,0.517,0.048c0.184,0.032,0.367,0.086,0.552,0.162   c0.184,0.076,0.357,0.176,0.521,0.301c0.164,0.123,0.303,0.277,0.414,0.461h0.024v-3.191h1.02v8.568H82.721z M79.055,159.371   c0.076,0.277,0.192,0.522,0.348,0.738c0.156,0.217,0.356,0.389,0.601,0.516c0.244,0.129,0.529,0.193,0.857,0.193   c0.344,0,0.637-0.068,0.876-0.205c0.24-0.135,0.437-0.313,0.589-0.533c0.151-0.221,0.262-0.471,0.329-0.75   c0.068-0.28,0.103-0.564,0.103-0.853c0-0.304-0.036-0.598-0.108-0.882c-0.071-0.283-0.186-0.534-0.342-0.75   s-0.358-0.391-0.605-0.521c-0.248-0.133-0.549-0.199-0.9-0.199c-0.344,0-0.636,0.068-0.876,0.205   c-0.24,0.136-0.432,0.316-0.576,0.539c-0.144,0.225-0.248,0.48-0.312,0.769c-0.064,0.288-0.097,0.584-0.097,0.888   C78.94,158.814,78.979,159.096,79.055,159.371z"/><path d="M86.237,155.369v1.309h0.023c0.248-0.504,0.552-0.876,0.912-1.116c0.36-0.239,0.816-0.352,1.368-0.336v1.08   c-0.408,0-0.756,0.056-1.044,0.168s-0.521,0.276-0.696,0.492s-0.304,0.478-0.384,0.786c-0.08,0.308-0.12,0.662-0.12,1.062v2.76   h-1.02v-6.205H86.237z"/><path d="M89.368,154.254v-1.248h1.02v1.248H89.368z M90.388,155.369v6.205h-1.02v-6.205H90.388z"/><path d="M93.028,153.006v3.204h0.023c0.168-0.345,0.433-0.595,0.792-0.75c0.36-0.156,0.757-0.234,1.188-0.234   c0.479,0,0.897,0.089,1.254,0.265c0.355,0.176,0.652,0.414,0.888,0.713c0.236,0.301,0.414,0.646,0.534,1.039   c0.12,0.392,0.18,0.808,0.18,1.248c0,0.439-0.058,0.855-0.174,1.248c-0.116,0.392-0.292,0.733-0.527,1.025   c-0.236,0.292-0.532,0.521-0.889,0.689c-0.355,0.168-0.77,0.252-1.242,0.252c-0.151,0-0.321-0.016-0.51-0.047   c-0.188-0.033-0.374-0.084-0.558-0.156c-0.185-0.072-0.358-0.17-0.522-0.295c-0.164-0.123-0.302-0.277-0.414-0.461h-0.023v0.828   h-1.021v-8.568H93.028z M96.694,157.572c-0.076-0.276-0.192-0.522-0.349-0.738c-0.155-0.217-0.355-0.389-0.6-0.516   c-0.244-0.129-0.53-0.193-0.858-0.193c-0.344,0-0.636,0.068-0.876,0.205c-0.239,0.136-0.436,0.313-0.588,0.533   c-0.151,0.221-0.262,0.471-0.33,0.75c-0.067,0.281-0.102,0.564-0.102,0.853c0,0.304,0.036,0.599,0.108,0.882   c0.071,0.284,0.186,0.534,0.342,0.75c0.155,0.217,0.357,0.391,0.605,0.521c0.248,0.133,0.548,0.199,0.9,0.199   c0.352,0,0.646-0.068,0.882-0.205c0.236-0.135,0.426-0.315,0.57-0.539c0.144-0.225,0.248-0.48,0.312-0.769   c0.064-0.288,0.096-0.584,0.096-0.888C96.808,158.13,96.771,157.848,96.694,157.572z"/><path d="M100.145,153.006v3.204h0.023c0.168-0.345,0.433-0.595,0.792-0.75c0.36-0.156,0.757-0.234,1.188-0.234   c0.479,0,0.897,0.089,1.254,0.265c0.355,0.176,0.652,0.414,0.888,0.713c0.236,0.301,0.414,0.646,0.534,1.039   c0.12,0.392,0.18,0.808,0.18,1.248c0,0.439-0.058,0.855-0.174,1.248c-0.116,0.392-0.292,0.733-0.527,1.025   c-0.236,0.292-0.532,0.521-0.889,0.689c-0.355,0.168-0.77,0.252-1.242,0.252c-0.151,0-0.321-0.016-0.51-0.047   c-0.188-0.033-0.374-0.084-0.558-0.156c-0.185-0.072-0.358-0.17-0.522-0.295c-0.164-0.123-0.302-0.277-0.414-0.461h-0.023v0.828   h-1.021v-8.568H100.145z M103.811,157.572c-0.076-0.276-0.192-0.522-0.349-0.738c-0.155-0.217-0.355-0.389-0.6-0.516   c-0.244-0.129-0.53-0.193-0.858-0.193c-0.344,0-0.636,0.068-0.876,0.205c-0.239,0.136-0.436,0.313-0.588,0.533   c-0.151,0.221-0.262,0.471-0.33,0.75c-0.067,0.281-0.102,0.564-0.102,0.853c0,0.304,0.036,0.599,0.108,0.882   c0.071,0.284,0.186,0.534,0.342,0.75c0.155,0.217,0.357,0.391,0.605,0.521c0.248,0.133,0.548,0.199,0.9,0.199   c0.352,0,0.646-0.068,0.882-0.205c0.236-0.135,0.426-0.315,0.57-0.539c0.144-0.225,0.248-0.48,0.312-0.769   c0.064-0.288,0.096-0.584,0.096-0.888C103.924,158.13,103.887,157.848,103.811,157.572z"/><path d="M107.26,153.006v3.204h0.023c0.168-0.345,0.433-0.595,0.792-0.75c0.36-0.156,0.757-0.234,1.188-0.234   c0.479,0,0.897,0.089,1.254,0.265c0.355,0.176,0.652,0.414,0.888,0.713c0.236,0.301,0.414,0.646,0.534,1.039   c0.12,0.392,0.18,0.808,0.18,1.248c0,0.439-0.058,0.855-0.174,1.248c-0.116,0.392-0.292,0.733-0.527,1.025   c-0.236,0.292-0.532,0.521-0.889,0.689c-0.355,0.168-0.77,0.252-1.242,0.252c-0.151,0-0.321-0.016-0.51-0.047   c-0.188-0.033-0.374-0.084-0.558-0.156c-0.185-0.072-0.358-0.17-0.522-0.295c-0.164-0.123-0.302-0.277-0.414-0.461h-0.023v0.828   h-1.021v-8.568H107.26z M110.926,157.572c-0.076-0.276-0.192-0.522-0.349-0.738c-0.155-0.217-0.355-0.389-0.6-0.516   c-0.244-0.129-0.53-0.193-0.858-0.193c-0.344,0-0.636,0.068-0.876,0.205c-0.239,0.136-0.436,0.313-0.588,0.533   c-0.151,0.221-0.262,0.471-0.33,0.75c-0.067,0.281-0.102,0.564-0.102,0.853c0,0.304,0.036,0.599,0.108,0.882   c0.071,0.284,0.186,0.534,0.342,0.75c0.155,0.217,0.357,0.391,0.605,0.521c0.248,0.133,0.548,0.199,0.9,0.199   c0.352,0,0.646-0.068,0.882-0.205c0.236-0.135,0.426-0.315,0.57-0.539c0.144-0.225,0.248-0.48,0.312-0.769   c0.064-0.288,0.096-0.584,0.096-0.888C111.039,158.13,111.002,157.848,110.926,157.572z"/><path d="M114.399,153.006v8.568h-1.02v-8.568H114.399z"/><path d="M120.376,161.178c-0.464,0.352-1.048,0.527-1.752,0.527c-0.496,0-0.926-0.08-1.29-0.239   c-0.364-0.16-0.67-0.384-0.918-0.672s-0.435-0.632-0.559-1.032s-0.193-0.836-0.21-1.309c0-0.471,0.072-0.903,0.217-1.295   c0.144-0.393,0.346-0.732,0.605-1.021s0.568-0.512,0.924-0.672c0.356-0.16,0.746-0.24,1.17-0.24c0.553,0,1.01,0.114,1.374,0.343   c0.364,0.228,0.656,0.518,0.876,0.869c0.221,0.353,0.372,0.736,0.456,1.152s0.118,0.812,0.103,1.188h-4.645   c-0.008,0.272,0.024,0.53,0.097,0.774c0.071,0.244,0.188,0.46,0.348,0.647c0.16,0.188,0.364,0.338,0.612,0.451   c0.247,0.111,0.54,0.168,0.876,0.168c0.432,0,0.786-0.101,1.062-0.301c0.276-0.199,0.458-0.504,0.546-0.912h1.008   C121.14,160.302,120.84,160.826,120.376,161.178z M120.13,157.193c-0.092-0.216-0.216-0.402-0.372-0.558   c-0.156-0.156-0.34-0.28-0.552-0.372s-0.446-0.139-0.702-0.139c-0.264,0-0.502,0.047-0.714,0.139s-0.395,0.219-0.546,0.378   c-0.152,0.16-0.272,0.347-0.36,0.558c-0.088,0.213-0.14,0.438-0.156,0.679h3.564C120.275,157.638,120.222,157.41,120.13,157.193z"/><path d="M123.987,160.242v1.332h-1.332v-1.332H123.987z"/><path d="M129.471,156.449c-0.256-0.215-0.6-0.324-1.031-0.324c-0.368,0-0.677,0.068-0.925,0.205   c-0.248,0.136-0.445,0.316-0.594,0.539c-0.147,0.225-0.254,0.482-0.317,0.774c-0.064,0.292-0.097,0.595-0.097,0.906   c0,0.288,0.034,0.567,0.103,0.84c0.067,0.272,0.174,0.515,0.317,0.726c0.145,0.213,0.332,0.383,0.564,0.51   c0.231,0.129,0.508,0.193,0.828,0.193c0.504,0,0.897-0.133,1.182-0.396s0.458-0.637,0.522-1.116h1.044   c-0.112,0.769-0.398,1.36-0.858,1.776s-1.086,0.623-1.878,0.623c-0.472,0-0.89-0.076-1.254-0.228s-0.668-0.368-0.912-0.647   c-0.244-0.28-0.428-0.614-0.552-1.002c-0.124-0.389-0.187-0.814-0.187-1.278s0.061-0.897,0.181-1.302s0.302-0.756,0.546-1.057   c0.244-0.3,0.55-0.535,0.918-0.707s0.796-0.259,1.284-0.259c0.352,0,0.682,0.042,0.989,0.126c0.309,0.084,0.58,0.215,0.816,0.391   s0.43,0.397,0.582,0.666c0.151,0.268,0.248,0.586,0.288,0.953h-1.056C129.896,156.97,129.728,156.666,129.471,156.449z"/><path d="M132.063,157.199c0.128-0.396,0.32-0.739,0.576-1.031s0.571-0.522,0.948-0.69c0.376-0.168,0.808-0.252,1.296-0.252   c0.495,0,0.93,0.084,1.302,0.252s0.686,0.398,0.942,0.69c0.256,0.292,0.447,0.636,0.575,1.031c0.128,0.396,0.192,0.822,0.192,1.278   s-0.064,0.88-0.192,1.272c-0.128,0.392-0.319,0.734-0.575,1.025c-0.257,0.293-0.57,0.521-0.942,0.685   c-0.372,0.163-0.807,0.245-1.302,0.245c-0.488,0-0.92-0.082-1.296-0.245c-0.377-0.164-0.692-0.392-0.948-0.685   c-0.256-0.291-0.448-0.634-0.576-1.025c-0.128-0.393-0.192-0.816-0.192-1.272S131.936,157.596,132.063,157.199z M133.102,159.479   c0.1,0.292,0.238,0.536,0.414,0.732s0.382,0.346,0.618,0.45c0.235,0.104,0.485,0.156,0.75,0.156c0.264,0,0.514-0.053,0.75-0.156   c0.235-0.104,0.441-0.254,0.617-0.45c0.177-0.196,0.314-0.44,0.414-0.732c0.101-0.292,0.15-0.626,0.15-1.002s-0.05-0.71-0.15-1.002   c-0.1-0.292-0.237-0.538-0.414-0.737c-0.176-0.2-0.382-0.353-0.617-0.457c-0.236-0.104-0.486-0.156-0.75-0.156   c-0.265,0-0.515,0.053-0.75,0.156c-0.236,0.104-0.442,0.257-0.618,0.457c-0.176,0.199-0.314,0.445-0.414,0.737   c-0.101,0.292-0.15,0.626-0.15,1.002S133.001,159.188,133.102,159.479z"/><path d="M140.055,155.369v0.912h0.024c0.464-0.703,1.132-1.056,2.004-1.056c0.384,0,0.732,0.08,1.044,0.24   c0.312,0.16,0.532,0.433,0.66,0.815c0.208-0.336,0.481-0.596,0.822-0.779c0.34-0.184,0.714-0.276,1.122-0.276   c0.312,0,0.594,0.034,0.846,0.103s0.468,0.174,0.648,0.317c0.18,0.144,0.319,0.33,0.42,0.558c0.1,0.229,0.149,0.503,0.149,0.822   v4.549h-1.02v-4.068c0-0.191-0.017-0.372-0.048-0.54c-0.032-0.168-0.093-0.313-0.181-0.438c-0.088-0.123-0.21-0.222-0.366-0.293   c-0.155-0.072-0.357-0.109-0.605-0.109c-0.504,0-0.9,0.145-1.188,0.433c-0.287,0.288-0.432,0.672-0.432,1.152v3.864h-1.02v-4.068   c0-0.2-0.019-0.385-0.055-0.553s-0.098-0.313-0.186-0.438s-0.206-0.22-0.354-0.288c-0.147-0.067-0.338-0.103-0.569-0.103   c-0.297,0-0.551,0.061-0.763,0.181s-0.384,0.265-0.516,0.433s-0.228,0.342-0.288,0.521c-0.06,0.18-0.09,0.33-0.09,0.45v3.864   h-1.021v-6.205H140.055z"/><path d="M152.775,152.802l-3.552,8.964h-0.864l3.54-8.964H152.775z"/><path d="M154.406,153.006v5.076l2.832-2.713h1.368l-2.46,2.256l2.64,3.949h-1.296l-2.124-3.24l-0.96,0.888v2.353h-1.02v-8.568   H154.406z"/><path d="M160.479,155.369v1.309h0.023c0.248-0.504,0.552-0.876,0.912-1.116c0.36-0.239,0.816-0.352,1.368-0.336v1.08   c-0.408,0-0.756,0.056-1.044,0.168s-0.521,0.276-0.696,0.492s-0.304,0.478-0.384,0.786c-0.08,0.308-0.12,0.662-0.12,1.062v2.76   h-1.02v-6.205H160.479z"/><path d="M165.987,162.402c-0.12,0.303-0.238,0.559-0.354,0.768c-0.115,0.207-0.244,0.378-0.384,0.51s-0.296,0.229-0.468,0.288   s-0.37,0.09-0.594,0.09c-0.12,0-0.24-0.008-0.36-0.024c-0.12-0.016-0.236-0.043-0.348-0.084v-0.936   c0.088,0.04,0.189,0.074,0.306,0.102c0.116,0.028,0.214,0.043,0.294,0.043c0.208,0,0.382-0.051,0.522-0.15   c0.14-0.1,0.246-0.242,0.317-0.426l0.42-1.045l-2.46-6.168h1.152l1.812,5.076h0.024l1.74-5.076h1.08L165.987,162.402z"/><path d="M170.607,155.369v0.841h0.023c0.168-0.345,0.433-0.595,0.792-0.75c0.36-0.156,0.757-0.234,1.188-0.234   c0.479,0,0.897,0.089,1.254,0.265c0.355,0.176,0.652,0.414,0.888,0.713c0.236,0.301,0.414,0.646,0.534,1.039   c0.12,0.392,0.18,0.808,0.18,1.248c0,0.439-0.058,0.855-0.174,1.248c-0.116,0.392-0.292,0.733-0.527,1.025   c-0.236,0.292-0.532,0.521-0.889,0.689c-0.355,0.168-0.77,0.252-1.242,0.252c-0.151,0-0.321-0.016-0.51-0.047   c-0.188-0.033-0.374-0.084-0.558-0.156c-0.185-0.072-0.358-0.17-0.522-0.295c-0.164-0.123-0.302-0.277-0.414-0.461h-0.023v3.191   h-1.021v-8.568H170.607z M174.273,157.572c-0.076-0.276-0.192-0.522-0.349-0.738c-0.155-0.217-0.355-0.389-0.6-0.516   c-0.244-0.129-0.53-0.193-0.858-0.193c-0.344,0-0.636,0.068-0.876,0.205c-0.239,0.136-0.436,0.313-0.588,0.533   c-0.151,0.221-0.262,0.471-0.33,0.75c-0.067,0.281-0.102,0.564-0.102,0.853c0,0.304,0.036,0.599,0.108,0.882   c0.071,0.284,0.186,0.534,0.342,0.75c0.155,0.217,0.357,0.391,0.605,0.521c0.248,0.133,0.548,0.199,0.9,0.199   c0.352,0,0.646-0.068,0.882-0.205c0.236-0.135,0.426-0.315,0.57-0.539c0.144-0.225,0.248-0.48,0.312-0.769   c0.064-0.288,0.096-0.584,0.096-0.888C174.387,158.13,174.35,157.848,174.273,157.572z"/><path d="M179.318,155.369v0.9h-1.236v3.852c0,0.121,0.011,0.217,0.03,0.289s0.058,0.127,0.114,0.168   c0.056,0.039,0.134,0.065,0.233,0.078c0.101,0.012,0.23,0.018,0.391,0.018h0.468v0.9h-0.78c-0.264,0-0.49-0.019-0.678-0.055   c-0.188-0.035-0.34-0.102-0.456-0.197c-0.116-0.097-0.202-0.232-0.258-0.408s-0.084-0.408-0.084-0.696v-3.948h-1.056v-0.9h1.056   v-1.859h1.02v1.859H179.318z"/><path d="M180.303,157.199c0.128-0.396,0.32-0.739,0.576-1.031s0.571-0.522,0.948-0.69c0.376-0.168,0.808-0.252,1.296-0.252   c0.495,0,0.93,0.084,1.302,0.252s0.686,0.398,0.942,0.69c0.256,0.292,0.447,0.636,0.575,1.031c0.128,0.396,0.192,0.822,0.192,1.278   s-0.064,0.88-0.192,1.272c-0.128,0.392-0.319,0.734-0.575,1.025c-0.257,0.293-0.57,0.521-0.942,0.685   c-0.372,0.163-0.807,0.245-1.302,0.245c-0.488,0-0.92-0.082-1.296-0.245c-0.377-0.164-0.692-0.392-0.948-0.685   c-0.256-0.291-0.448-0.634-0.576-1.025c-0.128-0.393-0.192-0.816-0.192-1.272S180.175,157.596,180.303,157.199z M181.341,159.479   c0.1,0.292,0.238,0.536,0.414,0.732s0.382,0.346,0.618,0.45c0.235,0.104,0.485,0.156,0.75,0.156c0.264,0,0.514-0.053,0.75-0.156   c0.235-0.104,0.441-0.254,0.617-0.45c0.177-0.196,0.314-0.44,0.414-0.732c0.101-0.292,0.15-0.626,0.15-1.002s-0.05-0.71-0.15-1.002   c-0.1-0.292-0.237-0.538-0.414-0.737c-0.176-0.2-0.382-0.353-0.617-0.457c-0.236-0.104-0.486-0.156-0.75-0.156   c-0.265,0-0.515,0.053-0.75,0.156c-0.236,0.104-0.442,0.257-0.618,0.457c-0.176,0.199-0.314,0.445-0.414,0.737   c-0.101,0.292-0.15,0.626-0.15,1.002S181.24,159.188,181.341,159.479z"/><path d="M188.294,155.369v0.984h0.024c0.424-0.752,1.096-1.128,2.016-1.128c0.408,0,0.748,0.056,1.021,0.168   c0.271,0.112,0.492,0.269,0.66,0.468c0.168,0.201,0.286,0.438,0.354,0.715c0.068,0.275,0.103,0.582,0.103,0.918v4.08h-1.021v-4.201   c0-0.383-0.112-0.688-0.336-0.911s-0.532-0.337-0.924-0.337c-0.312,0-0.582,0.049-0.81,0.145c-0.229,0.096-0.419,0.232-0.57,0.408   c-0.152,0.176-0.267,0.383-0.342,0.618c-0.076,0.235-0.114,0.493-0.114,0.774v3.504h-1.021v-6.205H188.294z"/><path d="M195.086,153.006v8.568h-1.02v-8.568H195.086z"/><path d="M196.526,157.199c0.128-0.396,0.32-0.739,0.576-1.031s0.571-0.522,0.948-0.69c0.376-0.168,0.808-0.252,1.296-0.252   c0.495,0,0.93,0.084,1.302,0.252s0.686,0.398,0.942,0.69c0.256,0.292,0.447,0.636,0.575,1.031c0.128,0.396,0.192,0.822,0.192,1.278   s-0.064,0.88-0.192,1.272c-0.128,0.392-0.319,0.734-0.575,1.025c-0.257,0.293-0.57,0.521-0.942,0.685   c-0.372,0.163-0.807,0.245-1.302,0.245c-0.488,0-0.92-0.082-1.296-0.245c-0.377-0.164-0.692-0.392-0.948-0.685   c-0.256-0.291-0.448-0.634-0.576-1.025c-0.128-0.393-0.192-0.816-0.192-1.272S196.398,157.596,196.526,157.199z M197.564,159.479   c0.1,0.292,0.238,0.536,0.414,0.732s0.382,0.346,0.618,0.45c0.235,0.104,0.485,0.156,0.75,0.156c0.264,0,0.514-0.053,0.75-0.156   c0.235-0.104,0.441-0.254,0.617-0.45c0.177-0.196,0.314-0.44,0.414-0.732c0.101-0.292,0.15-0.626,0.15-1.002s-0.05-0.71-0.15-1.002   c-0.1-0.292-0.237-0.538-0.414-0.737c-0.176-0.2-0.382-0.353-0.617-0.457c-0.236-0.104-0.486-0.156-0.75-0.156   c-0.265,0-0.515,0.053-0.75,0.156c-0.236,0.104-0.442,0.257-0.618,0.457c-0.176,0.199-0.314,0.445-0.414,0.737   c-0.101,0.292-0.15,0.626-0.15,1.002S197.464,159.188,197.564,159.479z"/><path d="M205.262,161.574l-2.304-6.205h1.14l1.74,5.172h0.024l1.691-5.172h1.068l-2.268,6.205H205.262z"/><path d="M213.95,161.178c-0.464,0.352-1.048,0.527-1.752,0.527c-0.496,0-0.926-0.08-1.29-0.239c-0.364-0.16-0.67-0.384-0.918-0.672   s-0.435-0.632-0.559-1.032s-0.193-0.836-0.21-1.309c0-0.471,0.072-0.903,0.217-1.295c0.144-0.393,0.346-0.732,0.605-1.021   s0.568-0.512,0.924-0.672c0.356-0.16,0.746-0.24,1.17-0.24c0.553,0,1.01,0.114,1.374,0.343c0.364,0.228,0.656,0.518,0.876,0.869   c0.221,0.353,0.372,0.736,0.456,1.152s0.118,0.812,0.103,1.188h-4.645c-0.008,0.272,0.024,0.53,0.097,0.774   c0.071,0.244,0.188,0.46,0.348,0.647c0.16,0.188,0.364,0.338,0.612,0.451c0.247,0.111,0.54,0.168,0.876,0.168   c0.432,0,0.786-0.101,1.062-0.301c0.276-0.199,0.458-0.504,0.546-0.912h1.008C214.714,160.302,214.414,160.826,213.95,161.178z    M213.704,157.193c-0.092-0.216-0.216-0.402-0.372-0.558c-0.156-0.156-0.34-0.28-0.552-0.372s-0.446-0.139-0.702-0.139   c-0.264,0-0.502,0.047-0.714,0.139s-0.395,0.219-0.546,0.378c-0.152,0.16-0.272,0.347-0.36,0.558   c-0.088,0.213-0.14,0.438-0.156,0.679h3.564C213.85,157.638,213.796,157.41,213.704,157.193z"/><path d="M80.849,169.77v0.9h-1.236v3.852c0,0.121,0.011,0.217,0.03,0.289s0.058,0.127,0.114,0.168   c0.056,0.039,0.134,0.065,0.233,0.078c0.101,0.012,0.23,0.018,0.391,0.018h0.468v0.9h-0.78c-0.264,0-0.49-0.019-0.678-0.055   c-0.188-0.035-0.34-0.102-0.456-0.197c-0.116-0.097-0.202-0.232-0.258-0.408s-0.084-0.408-0.084-0.696v-3.948h-1.056v-0.9h1.056   v-1.859h1.02v1.859H80.849z"/><path d="M82.997,167.406v3.275h0.023c0.08-0.191,0.192-0.354,0.337-0.485c0.144-0.132,0.306-0.24,0.485-0.324   c0.181-0.084,0.368-0.146,0.564-0.187c0.195-0.039,0.386-0.06,0.569-0.06c0.408,0,0.748,0.056,1.021,0.168   c0.271,0.112,0.492,0.269,0.66,0.468c0.168,0.201,0.286,0.438,0.354,0.715c0.068,0.275,0.103,0.582,0.103,0.918v4.08h-1.021v-4.201   c0-0.383-0.112-0.688-0.336-0.911s-0.532-0.337-0.924-0.337c-0.312,0-0.582,0.049-0.81,0.145c-0.229,0.096-0.419,0.232-0.57,0.408   c-0.152,0.176-0.267,0.383-0.342,0.618c-0.076,0.235-0.114,0.493-0.114,0.774v3.504h-1.021v-8.568H82.997z"/><path d="M93.041,175.578c-0.464,0.352-1.048,0.527-1.752,0.527c-0.496,0-0.926-0.08-1.29-0.239c-0.364-0.16-0.67-0.384-0.918-0.672   s-0.435-0.632-0.559-1.032s-0.193-0.836-0.21-1.309c0-0.471,0.072-0.903,0.217-1.295c0.144-0.393,0.346-0.732,0.605-1.021   s0.568-0.512,0.924-0.672c0.356-0.16,0.746-0.24,1.17-0.24c0.553,0,1.01,0.114,1.374,0.343c0.364,0.228,0.656,0.518,0.876,0.869   c0.221,0.353,0.372,0.736,0.456,1.152s0.118,0.812,0.103,1.188h-4.645c-0.008,0.272,0.024,0.53,0.097,0.774   c0.071,0.244,0.188,0.46,0.348,0.647c0.16,0.188,0.364,0.338,0.612,0.451c0.247,0.111,0.54,0.168,0.876,0.168   c0.432,0,0.786-0.101,1.062-0.301c0.276-0.199,0.458-0.504,0.546-0.912h1.008C93.805,174.702,93.505,175.227,93.041,175.578z    M92.795,171.594c-0.092-0.216-0.216-0.402-0.372-0.558c-0.156-0.156-0.34-0.28-0.552-0.372s-0.446-0.139-0.702-0.139   c-0.264,0-0.502,0.047-0.714,0.139s-0.395,0.219-0.546,0.378c-0.152,0.16-0.272,0.347-0.36,0.558   c-0.088,0.213-0.14,0.438-0.156,0.679h3.564C92.94,172.038,92.887,171.811,92.795,171.594z"/><path d="M96.052,169.77v0.984h0.024c0.424-0.752,1.096-1.128,2.016-1.128c0.408,0,0.748,0.056,1.021,0.168   c0.271,0.112,0.492,0.269,0.66,0.468c0.168,0.201,0.286,0.438,0.354,0.715c0.068,0.275,0.103,0.582,0.103,0.918v4.08h-1.021v-4.201   c0-0.383-0.112-0.688-0.336-0.911s-0.532-0.337-0.924-0.337c-0.312,0-0.582,0.049-0.81,0.145c-0.229,0.096-0.419,0.232-0.57,0.408   c-0.152,0.176-0.267,0.383-0.342,0.618c-0.076,0.235-0.114,0.493-0.114,0.774v3.504h-1.021v-6.205H96.052z"/><path d="M101.62,171.6c0.128-0.396,0.32-0.739,0.576-1.031s0.571-0.522,0.948-0.69c0.376-0.168,0.808-0.252,1.296-0.252   c0.495,0,0.93,0.084,1.302,0.252s0.686,0.398,0.942,0.69c0.256,0.292,0.447,0.636,0.575,1.031c0.128,0.396,0.192,0.822,0.192,1.278   s-0.064,0.88-0.192,1.272c-0.128,0.392-0.319,0.734-0.575,1.025c-0.257,0.293-0.57,0.521-0.942,0.685   c-0.372,0.163-0.807,0.245-1.302,0.245c-0.488,0-0.92-0.082-1.296-0.245c-0.377-0.164-0.692-0.392-0.948-0.685   c-0.256-0.291-0.448-0.634-0.576-1.025c-0.128-0.393-0.192-0.816-0.192-1.272S101.492,171.996,101.62,171.6z M102.658,173.88   c0.1,0.292,0.238,0.536,0.414,0.732s0.382,0.346,0.618,0.45c0.235,0.104,0.485,0.156,0.75,0.156c0.264,0,0.514-0.053,0.75-0.156   c0.235-0.104,0.441-0.254,0.617-0.45c0.177-0.196,0.314-0.44,0.414-0.732c0.101-0.292,0.15-0.626,0.15-1.002s-0.05-0.71-0.15-1.002   c-0.1-0.292-0.237-0.538-0.414-0.737c-0.176-0.2-0.382-0.353-0.617-0.457c-0.236-0.104-0.486-0.156-0.75-0.156   c-0.265,0-0.515,0.053-0.75,0.156c-0.236,0.104-0.442,0.257-0.618,0.457c-0.176,0.199-0.314,0.445-0.414,0.737   c-0.101,0.292-0.15,0.626-0.15,1.002S102.558,173.588,102.658,173.88z"/><path d="M112.829,175.975v-0.984h-0.024c-0.216,0.384-0.492,0.666-0.828,0.846s-0.731,0.27-1.188,0.27   c-0.408,0-0.748-0.053-1.021-0.161c-0.271-0.108-0.492-0.263-0.66-0.462c-0.168-0.2-0.286-0.438-0.354-0.715   c-0.068-0.275-0.103-0.582-0.103-0.918v-4.08h1.021v4.201c0,0.383,0.112,0.688,0.336,0.912c0.224,0.223,0.532,0.336,0.924,0.336   c0.312,0,0.582-0.049,0.811-0.145c0.228-0.096,0.418-0.232,0.569-0.408c0.152-0.176,0.267-0.382,0.342-0.617   c0.076-0.236,0.114-0.494,0.114-0.775v-3.504h1.021v6.205H112.829z"/><path d="M116.284,169.77v0.984h0.024c0.424-0.752,1.096-1.128,2.016-1.128c0.408,0,0.748,0.056,1.021,0.168   c0.271,0.112,0.492,0.269,0.66,0.468c0.168,0.201,0.286,0.438,0.354,0.715c0.068,0.275,0.103,0.582,0.103,0.918v4.08h-1.021v-4.201   c0-0.383-0.112-0.688-0.336-0.911s-0.532-0.337-0.924-0.337c-0.312,0-0.582,0.049-0.81,0.145c-0.229,0.096-0.419,0.232-0.57,0.408   c-0.152,0.176-0.267,0.383-0.342,0.618c-0.076,0.235-0.114,0.493-0.114,0.774v3.504h-1.021v-6.205H116.284z"/><path d="M123.053,169.77v0.841h0.023c0.168-0.345,0.433-0.595,0.792-0.75c0.36-0.156,0.757-0.234,1.188-0.234   c0.479,0,0.897,0.089,1.254,0.265c0.355,0.176,0.652,0.414,0.888,0.713c0.236,0.301,0.414,0.646,0.534,1.039   c0.12,0.392,0.18,0.808,0.18,1.248c0,0.439-0.058,0.855-0.174,1.248c-0.116,0.392-0.292,0.733-0.527,1.025   c-0.236,0.292-0.532,0.521-0.889,0.689c-0.355,0.168-0.77,0.252-1.242,0.252c-0.151,0-0.321-0.016-0.51-0.047   c-0.188-0.033-0.374-0.084-0.558-0.156c-0.185-0.072-0.358-0.17-0.522-0.295c-0.164-0.123-0.302-0.277-0.414-0.461h-0.023v3.191   h-1.021v-8.568H123.053z M126.719,171.973c-0.076-0.276-0.192-0.522-0.349-0.738c-0.155-0.217-0.355-0.389-0.6-0.516   c-0.244-0.129-0.53-0.193-0.858-0.193c-0.344,0-0.636,0.068-0.876,0.205c-0.239,0.136-0.436,0.313-0.588,0.533   c-0.151,0.221-0.262,0.471-0.33,0.75c-0.067,0.281-0.102,0.564-0.102,0.853c0,0.304,0.036,0.599,0.108,0.882   c0.071,0.284,0.186,0.534,0.342,0.75c0.155,0.217,0.357,0.391,0.605,0.521c0.248,0.133,0.548,0.199,0.9,0.199   c0.352,0,0.646-0.068,0.882-0.205c0.236-0.135,0.426-0.315,0.57-0.539c0.144-0.225,0.248-0.48,0.312-0.769   c0.064-0.288,0.096-0.584,0.096-0.888C126.832,172.53,126.795,172.248,126.719,171.973z"/><path d="M130.036,169.77v1.309h0.023c0.248-0.504,0.552-0.876,0.912-1.116c0.36-0.239,0.816-0.352,1.368-0.336v1.08   c-0.408,0-0.756,0.056-1.044,0.168s-0.521,0.276-0.696,0.492s-0.304,0.478-0.384,0.786c-0.08,0.308-0.12,0.662-0.12,1.062v2.76   h-1.02v-6.205H130.036z"/><path d="M132.748,171.6c0.128-0.396,0.32-0.739,0.576-1.031s0.571-0.522,0.948-0.69c0.376-0.168,0.808-0.252,1.296-0.252   c0.495,0,0.93,0.084,1.302,0.252s0.686,0.398,0.942,0.69c0.256,0.292,0.447,0.636,0.575,1.031c0.128,0.396,0.192,0.822,0.192,1.278   s-0.064,0.88-0.192,1.272c-0.128,0.392-0.319,0.734-0.575,1.025c-0.257,0.293-0.57,0.521-0.942,0.685   c-0.372,0.163-0.807,0.245-1.302,0.245c-0.488,0-0.92-0.082-1.296-0.245c-0.377-0.164-0.692-0.392-0.948-0.685   c-0.256-0.291-0.448-0.634-0.576-1.025c-0.128-0.393-0.192-0.816-0.192-1.272S132.62,171.996,132.748,171.6z M133.786,173.88   c0.1,0.292,0.238,0.536,0.414,0.732s0.382,0.346,0.618,0.45c0.235,0.104,0.485,0.156,0.75,0.156c0.264,0,0.514-0.053,0.75-0.156   c0.235-0.104,0.441-0.254,0.617-0.45c0.177-0.196,0.314-0.44,0.414-0.732c0.101-0.292,0.15-0.626,0.15-1.002s-0.05-0.71-0.15-1.002   c-0.1-0.292-0.237-0.538-0.414-0.737c-0.176-0.2-0.382-0.353-0.617-0.457c-0.236-0.104-0.486-0.156-0.75-0.156   c-0.265,0-0.515,0.053-0.75,0.156c-0.236,0.104-0.442,0.257-0.618,0.457c-0.176,0.199-0.314,0.445-0.414,0.737   c-0.101,0.292-0.15,0.626-0.15,1.002S133.686,173.588,133.786,173.88z"/><path d="M140.458,177.96c-0.269,0.252-0.63,0.378-1.086,0.378c-0.185,0-0.356-0.016-0.517-0.048v-0.876   c0.04,0.008,0.074,0.014,0.103,0.018s0.058,0.006,0.09,0.006h0.216c0.224,0,0.376-0.062,0.456-0.186s0.12-0.346,0.12-0.666v-6.816   h1.02v6.984C140.859,177.307,140.726,177.708,140.458,177.96z M139.84,168.654v-1.248h1.02v1.248H139.84z"/><path d="M146.836,175.578c-0.464,0.352-1.048,0.527-1.752,0.527c-0.496,0-0.926-0.08-1.29-0.239   c-0.364-0.16-0.67-0.384-0.918-0.672s-0.435-0.632-0.559-1.032s-0.193-0.836-0.21-1.309c0-0.471,0.072-0.903,0.217-1.295   c0.144-0.393,0.346-0.732,0.605-1.021s0.568-0.512,0.924-0.672c0.356-0.16,0.746-0.24,1.17-0.24c0.553,0,1.01,0.114,1.374,0.343   c0.364,0.228,0.656,0.518,0.876,0.869c0.221,0.353,0.372,0.736,0.456,1.152s0.118,0.812,0.103,1.188h-4.645   c-0.008,0.272,0.024,0.53,0.097,0.774c0.071,0.244,0.188,0.46,0.348,0.647c0.16,0.188,0.364,0.338,0.612,0.451   c0.247,0.111,0.54,0.168,0.876,0.168c0.432,0,0.786-0.101,1.062-0.301c0.276-0.199,0.458-0.504,0.546-0.912h1.008   C147.6,174.702,147.3,175.227,146.836,175.578z M146.59,171.594c-0.092-0.216-0.216-0.402-0.372-0.558   c-0.156-0.156-0.34-0.28-0.552-0.372s-0.446-0.139-0.702-0.139c-0.264,0-0.502,0.047-0.714,0.139s-0.395,0.219-0.546,0.378   c-0.152,0.16-0.272,0.347-0.36,0.558c-0.088,0.213-0.14,0.438-0.156,0.679h3.564C146.735,172.038,146.682,171.811,146.59,171.594z"/><path d="M152.596,170.85c-0.256-0.215-0.6-0.324-1.031-0.324c-0.368,0-0.677,0.068-0.925,0.205   c-0.248,0.136-0.445,0.316-0.594,0.539c-0.147,0.225-0.254,0.482-0.317,0.774c-0.064,0.292-0.097,0.595-0.097,0.906   c0,0.288,0.034,0.567,0.103,0.84c0.067,0.272,0.174,0.515,0.317,0.726c0.145,0.213,0.332,0.383,0.564,0.51   c0.231,0.129,0.508,0.193,0.828,0.193c0.504,0,0.897-0.133,1.182-0.396s0.458-0.637,0.522-1.116h1.044   c-0.112,0.769-0.398,1.36-0.858,1.776s-1.086,0.623-1.878,0.623c-0.472,0-0.89-0.076-1.254-0.228s-0.668-0.368-0.912-0.647   c-0.244-0.28-0.428-0.614-0.552-1.002c-0.124-0.389-0.187-0.814-0.187-1.278s0.061-0.897,0.181-1.302s0.302-0.756,0.546-1.057   c0.244-0.3,0.55-0.535,0.918-0.707s0.796-0.259,1.284-0.259c0.352,0,0.682,0.042,0.989,0.126c0.309,0.084,0.58,0.215,0.816,0.391   s0.43,0.397,0.582,0.666c0.151,0.268,0.248,0.586,0.288,0.953h-1.056C153.021,171.37,152.853,171.066,152.596,170.85z"/><path d="M157.983,169.77v0.9h-1.236v3.852c0,0.121,0.011,0.217,0.03,0.289s0.058,0.127,0.114,0.168   c0.056,0.039,0.134,0.065,0.233,0.078c0.101,0.012,0.23,0.018,0.391,0.018h0.468v0.9h-0.78c-0.264,0-0.49-0.019-0.678-0.055   c-0.188-0.035-0.34-0.102-0.456-0.197c-0.116-0.097-0.202-0.232-0.258-0.408s-0.084-0.408-0.084-0.696v-3.948h-1.056v-0.9h1.056   v-1.859h1.02v1.859H157.983z"/><path d="M160.672,174.643v1.332h-1.332v-1.332H160.672z"/><path d="M166.155,170.85c-0.256-0.215-0.6-0.324-1.031-0.324c-0.368,0-0.677,0.068-0.925,0.205   c-0.248,0.136-0.445,0.316-0.594,0.539c-0.147,0.225-0.254,0.482-0.317,0.774c-0.064,0.292-0.097,0.595-0.097,0.906   c0,0.288,0.034,0.567,0.103,0.84c0.067,0.272,0.174,0.515,0.317,0.726c0.145,0.213,0.332,0.383,0.564,0.51   c0.231,0.129,0.508,0.193,0.828,0.193c0.504,0,0.897-0.133,1.182-0.396s0.458-0.637,0.522-1.116h1.044   c-0.112,0.769-0.398,1.36-0.858,1.776s-1.086,0.623-1.878,0.623c-0.472,0-0.89-0.076-1.254-0.228s-0.668-0.368-0.912-0.647   c-0.244-0.28-0.428-0.614-0.552-1.002c-0.124-0.389-0.187-0.814-0.187-1.278s0.061-0.897,0.181-1.302s0.302-0.756,0.546-1.057   c0.244-0.3,0.55-0.535,0.918-0.707s0.796-0.259,1.284-0.259c0.352,0,0.682,0.042,0.989,0.126c0.309,0.084,0.58,0.215,0.816,0.391   s0.43,0.397,0.582,0.666c0.151,0.268,0.248,0.586,0.288,0.953h-1.056C166.58,171.37,166.412,171.066,166.155,170.85z"/><path d="M168.747,171.6c0.128-0.396,0.32-0.739,0.576-1.031s0.571-0.522,0.948-0.69c0.376-0.168,0.808-0.252,1.296-0.252   c0.495,0,0.93,0.084,1.302,0.252s0.686,0.398,0.942,0.69c0.256,0.292,0.447,0.636,0.575,1.031c0.128,0.396,0.192,0.822,0.192,1.278   s-0.064,0.88-0.192,1.272c-0.128,0.392-0.319,0.734-0.575,1.025c-0.257,0.293-0.57,0.521-0.942,0.685   c-0.372,0.163-0.807,0.245-1.302,0.245c-0.488,0-0.92-0.082-1.296-0.245c-0.377-0.164-0.692-0.392-0.948-0.685   c-0.256-0.291-0.448-0.634-0.576-1.025c-0.128-0.393-0.192-0.816-0.192-1.272S168.619,171.996,168.747,171.6z M169.785,173.88   c0.1,0.292,0.238,0.536,0.414,0.732s0.382,0.346,0.618,0.45c0.235,0.104,0.485,0.156,0.75,0.156c0.264,0,0.514-0.053,0.75-0.156   c0.235-0.104,0.441-0.254,0.617-0.45c0.177-0.196,0.314-0.44,0.414-0.732c0.101-0.292,0.15-0.626,0.15-1.002s-0.05-0.71-0.15-1.002   c-0.1-0.292-0.237-0.538-0.414-0.737c-0.176-0.2-0.382-0.353-0.617-0.457c-0.236-0.104-0.486-0.156-0.75-0.156   c-0.265,0-0.515,0.053-0.75,0.156c-0.236,0.104-0.442,0.257-0.618,0.457c-0.176,0.199-0.314,0.445-0.414,0.737   c-0.101,0.292-0.15,0.626-0.15,1.002S169.685,173.588,169.785,173.88z"/><path d="M176.738,169.77v0.912h0.024c0.464-0.703,1.132-1.056,2.004-1.056c0.384,0,0.732,0.08,1.044,0.24   c0.312,0.16,0.532,0.433,0.66,0.815c0.208-0.336,0.481-0.596,0.822-0.779c0.34-0.184,0.714-0.276,1.122-0.276   c0.312,0,0.594,0.034,0.846,0.103s0.468,0.174,0.648,0.317c0.18,0.144,0.319,0.33,0.42,0.558c0.1,0.229,0.149,0.503,0.149,0.822   v4.549h-1.02v-4.068c0-0.191-0.017-0.372-0.048-0.54c-0.032-0.168-0.093-0.313-0.181-0.438c-0.088-0.123-0.21-0.222-0.366-0.293   c-0.155-0.072-0.357-0.109-0.605-0.109c-0.504,0-0.9,0.145-1.188,0.433c-0.287,0.288-0.432,0.672-0.432,1.152v3.864h-1.02v-4.068   c0-0.2-0.019-0.385-0.055-0.553s-0.098-0.313-0.186-0.438s-0.206-0.22-0.354-0.288c-0.147-0.067-0.338-0.103-0.569-0.103   c-0.297,0-0.551,0.061-0.763,0.181s-0.384,0.265-0.516,0.433s-0.228,0.342-0.288,0.521c-0.06,0.18-0.09,0.33-0.09,0.45v3.864   h-1.021v-6.205H176.738z"/><path d="M189.459,167.202l-3.552,8.964h-0.864l3.54-8.964H189.459z"/><path d="M191.091,167.406v5.076l2.832-2.713h1.368l-2.46,2.256l2.64,3.949h-1.296l-2.124-3.24l-0.96,0.888v2.353h-1.02v-8.568   H191.091z"/><path d="M197.163,169.77v1.309h0.023c0.248-0.504,0.552-0.876,0.912-1.116c0.36-0.239,0.816-0.352,1.368-0.336v1.08   c-0.408,0-0.756,0.056-1.044,0.168s-0.521,0.276-0.696,0.492s-0.304,0.478-0.384,0.786c-0.08,0.308-0.12,0.662-0.12,1.062v2.76   h-1.02v-6.205H197.163z"/><path d="M202.671,176.803c-0.12,0.303-0.238,0.559-0.354,0.768c-0.115,0.207-0.244,0.378-0.384,0.51s-0.296,0.229-0.468,0.288   s-0.37,0.09-0.594,0.09c-0.12,0-0.24-0.008-0.36-0.024c-0.12-0.016-0.236-0.043-0.348-0.084v-0.936   c0.088,0.04,0.189,0.074,0.306,0.102c0.116,0.028,0.214,0.043,0.294,0.043c0.208,0,0.382-0.051,0.522-0.15   c0.14-0.1,0.246-0.242,0.317-0.426l0.42-1.045l-2.46-6.168h1.152l1.812,5.076h0.024l1.74-5.076h1.08L202.671,176.803z"/><path d="M207.291,169.77v0.841h0.023c0.168-0.345,0.433-0.595,0.792-0.75c0.36-0.156,0.757-0.234,1.188-0.234   c0.479,0,0.897,0.089,1.254,0.265c0.355,0.176,0.652,0.414,0.888,0.713c0.236,0.301,0.414,0.646,0.534,1.039   c0.12,0.392,0.18,0.808,0.18,1.248c0,0.439-0.058,0.855-0.174,1.248c-0.116,0.392-0.292,0.733-0.527,1.025   c-0.236,0.292-0.532,0.521-0.889,0.689c-0.355,0.168-0.77,0.252-1.242,0.252c-0.151,0-0.321-0.016-0.51-0.047   c-0.188-0.033-0.374-0.084-0.558-0.156c-0.185-0.072-0.358-0.17-0.522-0.295c-0.164-0.123-0.302-0.277-0.414-0.461h-0.023v3.191   h-1.021v-8.568H207.291z M210.957,171.973c-0.076-0.276-0.192-0.522-0.349-0.738c-0.155-0.217-0.355-0.389-0.6-0.516   c-0.244-0.129-0.53-0.193-0.858-0.193c-0.344,0-0.636,0.068-0.876,0.205c-0.239,0.136-0.436,0.313-0.588,0.533   c-0.151,0.221-0.262,0.471-0.33,0.75c-0.067,0.281-0.102,0.564-0.102,0.853c0,0.304,0.036,0.599,0.108,0.882   c0.071,0.284,0.186,0.534,0.342,0.75c0.155,0.217,0.357,0.391,0.605,0.521c0.248,0.133,0.548,0.199,0.9,0.199   c0.352,0,0.646-0.068,0.882-0.205c0.236-0.135,0.426-0.315,0.57-0.539c0.144-0.225,0.248-0.48,0.312-0.769   c0.064-0.288,0.096-0.584,0.096-0.888C211.07,172.53,211.033,172.248,210.957,171.973z"/><path d="M216.003,169.77v0.9h-1.236v3.852c0,0.121,0.011,0.217,0.03,0.289s0.058,0.127,0.114,0.168   c0.056,0.039,0.134,0.065,0.233,0.078c0.101,0.012,0.23,0.018,0.391,0.018h0.468v0.9h-0.78c-0.264,0-0.49-0.019-0.678-0.055   c-0.188-0.035-0.34-0.102-0.456-0.197c-0.116-0.097-0.202-0.232-0.258-0.408s-0.084-0.408-0.084-0.696v-3.948h-1.056v-0.9h1.056   v-1.859h1.02v1.859H216.003z"/><path d="M216.986,171.6c0.128-0.396,0.32-0.739,0.576-1.031s0.571-0.522,0.948-0.69c0.376-0.168,0.808-0.252,1.296-0.252   c0.495,0,0.93,0.084,1.302,0.252s0.686,0.398,0.942,0.69c0.256,0.292,0.447,0.636,0.575,1.031c0.128,0.396,0.192,0.822,0.192,1.278   s-0.064,0.88-0.192,1.272c-0.128,0.392-0.319,0.734-0.575,1.025c-0.257,0.293-0.57,0.521-0.942,0.685   c-0.372,0.163-0.807,0.245-1.302,0.245c-0.488,0-0.92-0.082-1.296-0.245c-0.377-0.164-0.692-0.392-0.948-0.685   c-0.256-0.291-0.448-0.634-0.576-1.025c-0.128-0.393-0.192-0.816-0.192-1.272S216.858,171.996,216.986,171.6z M218.024,173.88   c0.1,0.292,0.238,0.536,0.414,0.732s0.382,0.346,0.618,0.45c0.235,0.104,0.485,0.156,0.75,0.156c0.264,0,0.514-0.053,0.75-0.156   c0.235-0.104,0.441-0.254,0.617-0.45c0.177-0.196,0.314-0.44,0.414-0.732c0.101-0.292,0.15-0.626,0.15-1.002s-0.05-0.71-0.15-1.002   c-0.1-0.292-0.237-0.538-0.414-0.737c-0.176-0.2-0.382-0.353-0.617-0.457c-0.236-0.104-0.486-0.156-0.75-0.156   c-0.265,0-0.515,0.053-0.75,0.156c-0.236,0.104-0.442,0.257-0.618,0.457c-0.176,0.199-0.314,0.445-0.414,0.737   c-0.101,0.292-0.15,0.626-0.15,1.002S217.924,173.588,218.024,173.88z"/><path d="M224.978,169.77v0.984h0.024c0.424-0.752,1.096-1.128,2.016-1.128c0.408,0,0.748,0.056,1.021,0.168   c0.271,0.112,0.492,0.269,0.66,0.468c0.168,0.201,0.286,0.438,0.354,0.715c0.068,0.275,0.103,0.582,0.103,0.918v4.08h-1.021v-4.201   c0-0.383-0.112-0.688-0.336-0.911s-0.532-0.337-0.924-0.337c-0.312,0-0.582,0.049-0.81,0.145c-0.229,0.096-0.419,0.232-0.57,0.408   c-0.152,0.176-0.267,0.383-0.342,0.618c-0.076,0.235-0.114,0.493-0.114,0.774v3.504h-1.021v-6.205H224.978z"/><path d="M231.771,167.406v8.568h-1.02v-8.568H231.771z"/><path d="M233.21,171.6c0.128-0.396,0.32-0.739,0.576-1.031s0.571-0.522,0.948-0.69c0.376-0.168,0.808-0.252,1.296-0.252   c0.495,0,0.93,0.084,1.302,0.252s0.686,0.398,0.942,0.69c0.256,0.292,0.447,0.636,0.575,1.031c0.128,0.396,0.192,0.822,0.192,1.278   s-0.064,0.88-0.192,1.272c-0.128,0.392-0.319,0.734-0.575,1.025c-0.257,0.293-0.57,0.521-0.942,0.685   c-0.372,0.163-0.807,0.245-1.302,0.245c-0.488,0-0.92-0.082-1.296-0.245c-0.377-0.164-0.692-0.392-0.948-0.685   c-0.256-0.291-0.448-0.634-0.576-1.025c-0.128-0.393-0.192-0.816-0.192-1.272S233.082,171.996,233.21,171.6z M234.248,173.88   c0.1,0.292,0.238,0.536,0.414,0.732s0.382,0.346,0.618,0.45c0.235,0.104,0.485,0.156,0.75,0.156c0.264,0,0.514-0.053,0.75-0.156   c0.235-0.104,0.441-0.254,0.617-0.45c0.177-0.196,0.314-0.44,0.414-0.732c0.101-0.292,0.15-0.626,0.15-1.002s-0.05-0.71-0.15-1.002   c-0.1-0.292-0.237-0.538-0.414-0.737c-0.176-0.2-0.382-0.353-0.617-0.457c-0.236-0.104-0.486-0.156-0.75-0.156   c-0.265,0-0.515,0.053-0.75,0.156c-0.236,0.104-0.442,0.257-0.618,0.457c-0.176,0.199-0.314,0.445-0.414,0.737   c-0.101,0.292-0.15,0.626-0.15,1.002S234.147,173.588,234.248,173.88z"/><path d="M241.946,175.975l-2.304-6.205h1.14l1.74,5.172h0.024l1.691-5.172h1.068l-2.268,6.205H241.946z"/><path d="M250.635,175.578c-0.464,0.352-1.048,0.527-1.752,0.527c-0.496,0-0.926-0.08-1.29-0.239   c-0.364-0.16-0.67-0.384-0.918-0.672s-0.435-0.632-0.559-1.032s-0.193-0.836-0.21-1.309c0-0.471,0.072-0.903,0.217-1.295   c0.144-0.393,0.346-0.732,0.605-1.021s0.568-0.512,0.924-0.672c0.356-0.16,0.746-0.24,1.17-0.24c0.553,0,1.01,0.114,1.374,0.343   c0.364,0.228,0.656,0.518,0.876,0.869c0.221,0.353,0.372,0.736,0.456,1.152s0.118,0.812,0.103,1.188h-4.645   c-0.008,0.272,0.024,0.53,0.097,0.774c0.071,0.244,0.188,0.46,0.348,0.647c0.16,0.188,0.364,0.338,0.612,0.451   c0.247,0.111,0.54,0.168,0.876,0.168c0.432,0,0.786-0.101,1.062-0.301c0.276-0.199,0.458-0.504,0.546-0.912h1.008   C251.398,174.702,251.099,175.227,250.635,175.578z M250.389,171.594c-0.092-0.216-0.216-0.402-0.372-0.558   c-0.156-0.156-0.34-0.28-0.552-0.372s-0.446-0.139-0.702-0.139c-0.264,0-0.502,0.047-0.714,0.139s-0.395,0.219-0.546,0.378   c-0.152,0.16-0.272,0.347-0.36,0.558c-0.088,0.213-0.14,0.438-0.156,0.679h3.564C250.534,172.038,250.48,171.811,250.389,171.594z"/><path d="M256.13,167.202l-3.552,8.964h-0.864l3.54-8.964H256.13z"/></g><path d="M50.05,5.039c-6.327,0-12.353,1.316-17.818,3.687c-0.103,0.024-0.204,0.056-0.304,0.099C15.57,15.991,5,32.158,5,50.012  c0,24.785,20.164,44.949,44.949,44.949c17.854,0,34.021-10.57,41.188-26.929c0.296-0.677,0.147-1.466-0.375-1.987  c-0.522-0.523-1.312-0.671-1.988-0.375c-5.241,2.296-10.82,3.461-16.583,3.461c-9.294,0-17.883-3.083-24.797-8.279  c7.341-5.932,16.476-9.176,25.975-9.176c6.612,0,12.93,1.514,18.778,4.5c0.526,0.269,1.151,0.26,1.671-0.021  s0.866-0.801,0.929-1.389C94.915,53.178,95,51.57,95,49.988C95,25.203,74.836,5.039,50.05,5.039z M72.191,72.718  c4.678,0,9.245-0.706,13.632-2.104C81.47,78.191,74.882,84.098,67.12,87.641c-1.669-6.326-4.677-12.143-8.795-17.114  C62.694,71.947,67.354,72.718,72.191,72.718z M63.762,88.996c-4.361,1.545-9.021,2.377-13.812,2.377  c-6.276,0-12.229-1.408-17.564-3.92C18.336,80.836,8.588,66.541,8.588,50.012c0-14.915,8.017-28.553,20.76-35.874  c-1.398,4.387-2.105,8.954-2.105,13.631c0,1.619,0.092,3.217,0.259,4.791c1.069,10.038,5.454,19.098,12.038,26.062  c1.584,1.676,3.295,3.232,5.118,4.649c0.728,0.565,1.473,1.11,2.235,1.632c0.062,0.059,0.125,0.117,0.197,0.168  C55.435,70.816,61.31,79.27,63.762,88.996z M44.576,58.533C36.144,50.955,30.83,39.972,30.83,27.769  c0-5.512,1.068-10.854,3.171-15.896c1.779-0.752,3.619-1.386,5.515-1.886c-0.08,0.22-0.134,0.369-0.134,0.369  c-1.432,4.437-2.155,9.056-2.155,13.778c0,11.561,4.301,22.391,12.161,30.747c0,0,0.036,0.042,0.07,0.093  C47.76,56.043,46.132,57.234,44.576,58.533z M91.371,51.838c-5.673-2.489-11.716-3.749-18.002-3.749  c-7.274,0-14.351,1.751-20.688,5.039c-7.661-7.78-11.867-18.029-11.867-28.993c0-5.18,0.946-10.224,2.813-15.009  c2.094-0.328,4.238-0.5,6.423-0.5c22.808,0,41.362,18.556,41.362,41.362C91.412,50.602,91.398,51.22,91.371,51.838z M19.587,50.1  c-2.538,0-4.604-2.065-4.604-4.604c0-2.539,2.065-4.604,4.604-4.604c2.539,0,4.604,2.065,4.604,4.604  C24.191,48.034,22.126,50.1,19.587,50.1z M19.587,44.479c-0.561,0-1.016,0.455-1.016,1.017c0,0.561,0.455,1.017,1.016,1.017  s1.017-0.456,1.017-1.017C20.604,44.935,20.147,44.479,19.587,44.479z"/></svg>